<svg width="625" height="567" viewBox="0 0 625 567" fill="none" xmlns="http://www.w3.org/2000/svg">
<path d="M560.327 538.537L589.66 557H555H-85H-95V547V32V16.1131L-80.6755 22.9834C-57.8201 33.9454 -11.5706 73.9423 5.52515 149.758C14.7521 190.677 42.9792 209.65 72.8018 218.955C95.9297 226.17 118.157 227.194 133.28 227.891C138.321 228.123 142.572 228.319 145.804 228.695C152.608 229.488 163.767 232.873 177.256 238.391C191.024 244.022 207.959 252.182 226.531 263.048C263.654 284.767 307.636 317.486 345.991 362.802C404.917 432.421 513.276 508.922 560.327 538.537Z" fill="#150A63" stroke="#0F064E" stroke-width="20"/>
</svg>
