<svg width="667" height="567" viewBox="0 0 667 567" fill="none" xmlns="http://www.w3.org/2000/svg">
<path d="M64.6731 538.537L35.3397 557H70H710H720V547V32V16.1131L705.675 22.9834C682.82 33.9454 636.571 73.9423 619.475 149.758C610.248 190.677 582.021 209.65 552.198 218.955C529.07 226.17 506.843 227.194 491.72 227.891C486.679 228.123 482.428 228.319 479.196 228.695C472.392 229.488 461.233 232.873 447.744 238.391C433.976 244.022 417.041 252.182 398.469 263.048C361.346 284.767 317.364 317.486 279.009 362.802C220.083 432.421 111.724 508.922 64.6731 538.537Z" fill="#0F064E" stroke="#150A63" stroke-width="20"/>
</svg>
